<svg width="29" height="21" viewBox="0 0 29 21" fill="none" xmlns="http://www.w3.org/2000/svg">
<path fill-rule="evenodd" clip-rule="evenodd" d="M27.4279 1.3C27.7207 1.61067 27.9494 1.97597 28.101 2.37505C28.2526 2.77414 28.324 3.19917 28.3113 3.62588C28.2986 4.05258 28.2019 4.4726 28.0268 4.86195C27.8518 5.25129 27.6017 5.60232 27.2909 5.895L12.4399 19.89C11.8193 20.4747 10.9938 20.7921 10.1414 20.7738C9.2889 20.7554 8.47779 20.4028 7.88291 19.792L1.61891 13.357C1.01767 12.7393 0.686423 11.9081 0.69805 11.0462C0.709677 10.1842 1.06322 9.36224 1.68091 8.76099C2.2986 8.15975 3.12984 7.82851 3.99175 7.84013C4.85367 7.85176 5.67567 8.20531 6.27691 8.823L10.3099 12.966L22.8349 1.16399C23.4622 0.572859 24.2985 0.255095 25.1601 0.2806C26.0216 0.306104 26.8377 0.672789 27.4289 1.3" fill="#006647"/>
</svg>
