<svg width="32" height="32" viewBox="0 0 32 32" fill="none" xmlns="http://www.w3.org/2000/svg">
<path fill-rule="evenodd" clip-rule="evenodd" d="M10.848 2.13729C10.9884 2.36205 11.0339 2.63337 10.9744 2.89162C10.9149 3.14988 10.7553 3.37395 10.5307 3.51462L5.19733 6.84795C4.97243 6.98869 4.70083 7.03433 4.44228 6.97482C4.18373 6.91531 3.95941 6.75552 3.81867 6.53062C3.67793 6.30572 3.63229 6.03411 3.6918 5.77556C3.75131 5.51701 3.9111 5.29269 4.136 5.15195L9.46933 1.81862C9.58076 1.74894 9.70483 1.70192 9.83444 1.68022C9.96406 1.65853 10.0967 1.6626 10.2247 1.69219C10.3528 1.72179 10.4737 1.77633 10.5807 1.8527C10.6876 1.92908 10.7785 2.02578 10.848 2.13729ZM21.152 2.13729C21.2215 2.02578 21.3124 1.92908 21.4193 1.8527C21.5263 1.77633 21.6472 1.72179 21.7753 1.69219C21.9033 1.6626 22.0359 1.65853 22.1656 1.68022C22.2952 1.70192 22.4192 1.74894 22.5307 1.81862L27.864 5.15195C28.0889 5.29269 28.2487 5.51701 28.3082 5.77556C28.3677 6.03411 28.3221 6.30572 28.1813 6.53062C28.0406 6.75552 27.8163 6.91531 27.5577 6.97482C27.2992 7.03433 27.0276 6.98869 26.8027 6.84795L21.4693 3.51462C21.2447 3.37395 21.0851 3.14988 21.0256 2.89162C20.9661 2.63337 21.0116 2.36205 21.152 2.13729ZM16 6.33329C13.0826 6.33329 10.2847 7.49221 8.22183 9.55511C6.15893 11.618 5 14.4159 5 17.3333C5 20.2507 6.15893 23.0486 8.22183 25.1115C10.2847 27.1744 13.0826 28.3333 16 28.3333C18.9174 28.3333 21.7153 27.1744 23.7782 25.1115C25.8411 23.0486 27 20.2507 27 17.3333C27 14.4159 25.8411 11.618 23.7782 9.55511C21.7153 7.49221 18.9174 6.33329 16 6.33329ZM3 17.3333C3 10.1533 8.82 4.33329 16 4.33329C23.18 4.33329 29 10.1533 29 17.3333C29 24.5133 23.18 30.3333 16 30.3333C8.82 30.3333 3 24.5133 3 17.3333ZM16 11C16.2652 11 16.5196 11.1053 16.7071 11.2928C16.8946 11.4804 17 11.7347 17 12V16.92L20.04 19.96C20.1382 20.0515 20.2171 20.1619 20.2717 20.2846C20.3264 20.4072 20.3558 20.5397 20.3581 20.6739C20.3605 20.8082 20.3358 20.9416 20.2855 21.0661C20.2352 21.1906 20.1603 21.3037 20.0654 21.3987C19.9704 21.4936 19.8573 21.5685 19.7328 21.6188C19.6083 21.6691 19.4749 21.6938 19.3406 21.6914C19.2064 21.689 19.0739 21.6596 18.9513 21.605C18.8286 21.5503 18.7182 21.4715 18.6267 21.3733L15.2933 18.04C15.1057 17.8526 15.0002 17.5984 15 17.3333V12C15 11.7347 15.1054 11.4804 15.2929 11.2928C15.4804 11.1053 15.7348 11 16 11Z" fill="#006647"/>
</svg>
