<svg width="18" height="30" viewBox="0 0 18 30" fill="none" xmlns="http://www.w3.org/2000/svg">
<path d="M13.6362 16.1867L15.6562 27.5547C15.6788 27.6886 15.66 27.8261 15.6023 27.949C15.5446 28.0719 15.4508 28.1743 15.3334 28.2424C15.216 28.3106 15.0806 28.3412 14.9452 28.3303C14.8099 28.3194 14.6811 28.2674 14.5762 28.1814L9.80282 24.5987C9.57239 24.4266 9.29246 24.3335 9.00482 24.3335C8.71718 24.3335 8.43726 24.4266 8.20682 24.5987L3.42549 28.18C3.32058 28.266 3.19197 28.3178 3.05682 28.3288C2.92166 28.3397 2.78639 28.3091 2.66904 28.2412C2.5517 28.1733 2.45786 28.0711 2.40005 27.9485C2.34224 27.8258 2.32321 27.6885 2.34549 27.5547L4.36416 16.1867" stroke="#006647" stroke-width="2" stroke-linecap="round" stroke-linejoin="round"/>
<path d="M9 17.6667C13.4183 17.6667 17 14.085 17 9.66669C17 5.24841 13.4183 1.66669 9 1.66669C4.58172 1.66669 1 5.24841 1 9.66669C1 14.085 4.58172 17.6667 9 17.6667Z" stroke="#006647" stroke-width="2" stroke-linecap="round" stroke-linejoin="round"/>
</svg>
