<svg width="1512" height="845" viewBox="0 0 1512 845" fill="none" xmlns="http://www.w3.org/2000/svg">
<g opacity="0.99">
<path d="M82.1229 7.6588L74.4641 0H27.202L58.4934 31.2914L82.1229 7.6588Z" fill="#FFEDCC"/>
</g>
<g opacity="0.87">
<path d="M58.4934 31.2914L89.7817 0H42.5226L34.8608 7.6588L58.4934 31.2914Z" fill="#FFEDCC"/>
</g>
<g opacity="0.64">
<path d="M313.457 7.6588L305.799 0H258.536L289.828 31.2914L313.457 7.6588Z" fill="#FFEDCC"/>
</g>
<g opacity="0.84">
<path d="M289.828 31.2914L321.119 0H273.857L266.198 7.6588L289.828 31.2914Z" fill="#FFEDCC"/>
</g>
<g opacity="0.54">
<path d="M544.792 7.6588L537.13 0H489.871L521.162 31.2914L544.792 7.6588Z" fill="#FFEDCC"/>
</g>
<g opacity="0.95">
<path d="M660.464 7.6588L652.805 0H605.54L636.834 31.2914L660.464 7.6588Z" fill="#FFEDCC"/>
</g>
<g opacity="0.47">
<path d="M636.834 31.2914L668.126 0H620.863L613.201 7.6588L636.834 31.2914Z" fill="#FFEDCC"/>
</g>
<g opacity="0.53">
<path d="M752.5 31.2914L783.792 0H736.529L728.871 7.6588L752.5 31.2914Z" fill="#FFEDCC"/>
</g>
<g opacity="0.44">
<path d="M868.169 31.2914L899.46 0H852.198L844.539 7.6588L868.169 31.2914Z" fill="#FFEDCC"/>
</g>
<g opacity="0.68">
<path d="M1123.13 7.6588L1115.47 0H1068.21L1099.5 31.2914L1123.13 7.6588Z" fill="#FFEDCC"/>
</g>
<g opacity="0.64">
<path d="M1238.8 7.6588L1231.14 0H1183.87L1215.17 31.2914L1238.8 7.6588Z" fill="#FFEDCC"/>
</g>
<g opacity="0.33">
<path d="M1215.17 31.2914L1246.46 0H1199.2L1191.54 7.6588L1215.17 31.2914Z" fill="#FFEDCC"/>
</g>
<g opacity="0.47">
<path d="M1330.84 31.2914L1362.13 0H1314.87L1307.21 7.66184L1330.84 31.2914Z" fill="#FFEDCC"/>
</g>
<g opacity="0.45">
<path d="M82.1228 123.327L-7 34.2041V81.4632L58.4932 146.956L82.1228 123.327Z" fill="#FFEDCC"/>
</g>
<g opacity="0.75">
<path d="M174.162 146.957L197.792 123.328L74.4641 0H42.5226L34.8608 7.6588L174.162 146.957Z" fill="#FFEDCC"/>
</g>
<g opacity="0.39">
<path d="M174.162 146.957L313.457 7.6588L305.799 0H273.857L150.533 123.328L174.162 146.957Z" fill="#FFEDCC"/>
</g>
<g opacity="0.6">
<path d="M289.828 146.957L429.129 7.6588L421.467 0H389.529L266.198 123.328L289.828 146.957Z" fill="#FFEDCC"/>
</g>
<g opacity="0.93">
<path d="M521.162 146.957L544.792 123.328L421.467 0H389.529L381.867 7.6588L521.162 146.957Z" fill="#FFEDCC"/>
</g>
<g opacity="0.58">
<path d="M636.834 146.957L660.464 123.328L537.13 0H505.192L497.53 7.6588L636.834 146.957Z" fill="#FFEDCC"/>
</g>
<g opacity="0.98">
<path d="M636.834 146.957L776.129 7.6588L768.471 0H736.529L613.201 123.328L636.834 146.957Z" fill="#FFEDCC"/>
</g>
<g opacity="0.75">
<path d="M868.169 146.957L891.802 123.328L768.471 0H736.529L728.871 7.6588L868.169 146.957Z" fill="#FFEDCC"/>
</g>
<g opacity="0.78">
<path d="M983.835 146.957L1007.46 123.328L884.14 0H852.198L844.539 7.6588L983.835 146.957Z" fill="#FFEDCC"/>
</g>
<g opacity="0.61">
<path d="M983.835 146.957L1123.13 7.6588L1115.47 0H1083.53L960.202 123.328L983.835 146.957Z" fill="#FFEDCC"/>
</g>
<g opacity="0.81">
<path d="M1215.17 146.957L1238.8 123.328L1115.47 0H1083.53L1075.87 7.6588L1215.17 146.957Z" fill="#FFEDCC"/>
</g>
<g opacity="0.54">
<path d="M1215.17 146.957L1354.47 7.66184L1346.81 0H1314.87L1191.54 123.325L1215.17 146.957Z" fill="#FFEDCC"/>
</g>
<g opacity="0.43">
<path d="M1446.5 146.957L1470.13 123.328L1346.81 0H1314.87L1307.21 7.6588L1446.5 146.957Z" fill="#FFEDCC"/>
</g>
<g opacity="0.8">
<path d="M1462.47 0H1430.53L1422.87 7.66184L1512 96.7846V49.5255L1462.47 0Z" fill="#FFEDCC"/>
</g>
<g opacity="0.93">
<path d="M58.4932 99.6946L-7 165.188V212.45L82.1228 123.327L58.4932 99.6946Z" fill="#FFEDCC"/>
</g>
<g opacity="0.88">
<path d="M174.158 99.6951L34.8597 238.993L58.4895 262.623L197.788 123.325L174.158 99.6951Z" fill="#FFEDCC"/>
</g>
<g opacity="0.71">
<path d="M174.157 99.6983L150.527 123.328L289.823 262.624L313.453 238.994L174.157 99.6983Z" fill="#FFEDCC"/>
</g>
<g opacity="0.49">
<path d="M405.493 99.6968L266.195 238.995L289.825 262.625L429.123 123.327L405.493 99.6968Z" fill="#FFEDCC"/>
</g>
<g opacity="0.36">
<path d="M405.49 99.6968L381.86 123.327L521.154 262.62L544.784 238.991L405.49 99.6968Z" fill="#FFEDCC"/>
</g>
<g opacity="0.69">
<path d="M521.164 99.7117L497.535 123.342L636.833 262.64L660.463 239.01L521.164 99.7117Z" fill="#FFEDCC"/>
</g>
<g opacity="0.68">
<path d="M636.826 99.7012L613.196 123.331L752.492 262.627L776.122 238.997L636.826 99.7012Z" fill="#FFEDCC"/>
</g>
<g opacity="0.38">
<path d="M868.162 99.6998L728.864 238.998L752.494 262.628L891.792 123.33L868.162 99.6998Z" fill="#FFEDCC"/>
</g>
<g opacity="0.86">
<path d="M868.155 99.6968L844.526 123.327L983.819 262.62L1007.45 238.991L868.155 99.6968Z" fill="#FFEDCC"/>
</g>
<g opacity="0.36">
<path d="M983.832 99.71L960.202 123.34L1099.5 262.638L1123.13 239.008L983.832 99.71Z" fill="#FFEDCC"/>
</g>
<g opacity="0.81">
<path d="M1099.49 99.6953L1075.86 123.325L1215.15 262.619L1238.78 238.989L1099.49 99.6953Z" fill="#FFEDCC"/>
</g>
<g opacity="0.83">
<path d="M1215.19 99.7408L1191.56 123.373L1330.86 262.673L1354.49 239.041L1215.19 99.7408Z" fill="#FFEDCC"/>
</g>
<g opacity="0.46">
<path d="M1330.8 99.6673L1307.17 123.297L1446.46 262.589L1470.09 238.959L1330.8 99.6673Z" fill="#FFEDCC"/>
</g>
<g opacity="0.72">
<path d="M1446.5 99.6946L1422.87 123.327L1512 212.453V165.191L1446.5 99.6946Z" fill="#FFEDCC"/>
</g>
<g opacity="0.42">
<path d="M58.4932 215.364L-7 280.857V328.12L82.1228 238.994L58.4932 215.364Z" fill="#FFEDCC"/>
</g>
<g opacity="0.59">
<path d="M58.4914 215.362L34.8616 238.992L174.162 378.292L197.792 354.662L58.4914 215.362Z" fill="#FFEDCC"/>
</g>
<g opacity="0.98">
<path d="M289.824 215.365L150.526 354.663L174.156 378.292L313.454 238.994L289.824 215.365Z" fill="#FFEDCC"/>
</g>
<g opacity="0.79">
<path d="M289.824 215.363L266.194 238.993L405.494 378.293L429.124 354.664L289.824 215.363Z" fill="#FFEDCC"/>
</g>
<g opacity="0.77">
<path d="M405.488 215.348L381.858 238.978L521.156 378.276L544.786 354.646L405.488 215.348Z" fill="#FFEDCC"/>
</g>
<g opacity="0.34">
<path d="M636.827 215.368L497.527 354.668L521.157 378.298L660.457 238.998L636.827 215.368Z" fill="#FFEDCC"/>
</g>
<g opacity="0.49">
<path d="M752.495 215.372L613.197 354.67L636.827 378.3L776.125 239.002L752.495 215.372Z" fill="#FFEDCC"/>
</g>
<g opacity="0.96">
<path d="M752.491 215.365L728.861 238.995L868.162 378.295L891.791 354.665L752.491 215.365Z" fill="#FFEDCC"/>
</g>
<g opacity="0.36">
<path d="M983.841 215.396L844.543 354.694L868.173 378.324L1007.47 239.026L983.841 215.396Z" fill="#FFEDCC"/>
</g>
<g opacity="0.61">
<path d="M983.823 215.365L960.193 238.995L1099.49 378.295L1123.12 354.665L983.823 215.365Z" fill="#FFEDCC"/>
</g>
<g opacity="0.73">
<path d="M1099.47 215.338L1075.84 238.968L1215.14 378.266L1238.77 354.636L1099.47 215.338Z" fill="#FFEDCC"/>
</g>
<g opacity="0.96">
<path d="M1330.83 215.376L1191.53 354.678L1215.16 378.308L1354.46 239.005L1330.83 215.376Z" fill="#FFEDCC"/>
</g>
<g opacity="0.49">
<path d="M1330.79 215.313L1307.16 238.943L1446.45 378.237L1470.08 354.607L1330.79 215.313Z" fill="#FFEDCC"/>
</g>
<g opacity="0.77">
<path d="M1446.5 215.364L1422.87 238.994L1512 328.123V280.864L1446.5 215.364Z" fill="#FFEDCC"/>
</g>
<g opacity="0.31">
<path d="M82.1228 470.328L-7 381.208V428.47L58.4932 493.961L82.1228 470.328Z" fill="#FFEDCC"/>
</g>
<g opacity="0.3">
<path d="M58.4873 331.037L34.8575 354.667L174.153 493.963L197.783 470.333L58.4873 331.037Z" fill="#FFEDCC"/>
</g>
<g opacity="0.89">
<path d="M174.155 331.037L150.525 354.667L289.821 493.963L313.451 470.333L174.155 331.037Z" fill="#FFEDCC"/>
</g>
<g opacity="0.6">
<path d="M405.491 331.03L266.195 470.326L289.824 493.956L429.12 354.66L405.491 331.03Z" fill="#FFEDCC"/>
</g>
<g opacity="0.95">
<path d="M521.155 331.031L381.861 470.325L405.491 493.955L544.785 354.661L521.155 331.031Z" fill="#FFEDCC"/>
</g>
<g opacity="0.74">
<path d="M521.161 331.06L497.531 354.689L636.829 493.988L660.459 470.358L521.161 331.06Z" fill="#FFEDCC"/>
</g>
<g opacity="0.39">
<path d="M636.826 331.042L613.197 354.672L752.493 493.968L776.122 470.338L636.826 331.042Z" fill="#FFEDCC"/>
</g>
<g opacity="0.36">
<path d="M752.497 331.051L728.868 354.68L868.164 493.976L891.793 470.346L752.497 331.051Z" fill="#FFEDCC"/>
</g>
<g opacity="0.85">
<path d="M868.158 331.036L844.529 354.666L983.822 493.96L1007.45 470.33L868.158 331.036Z" fill="#FFEDCC"/>
</g>
<g opacity="0.57">
<path d="M1099.49 331.031L960.193 470.326L983.823 493.956L1123.12 354.66L1099.49 331.031Z" fill="#FFEDCC"/>
</g>
<g opacity="0.54">
<path d="M1099.49 331.036L1075.86 354.666L1215.15 493.96L1238.78 470.33L1099.49 331.036Z" fill="#FFEDCC"/>
</g>
<g opacity="0.37">
<path d="M1330.81 331.001L1191.51 470.3L1215.14 493.932L1354.44 354.633L1330.81 331.001Z" fill="#FFEDCC"/>
</g>
<g opacity="0.5">
<path d="M1446.51 331.078L1307.21 470.369L1330.84 493.999L1470.14 354.707L1446.51 331.078Z" fill="#FFEDCC"/>
</g>
<g opacity="0.8">
<path d="M1446.5 331.032L1422.87 354.665L1512 443.791V396.529L1446.5 331.032Z" fill="#FFEDCC"/>
</g>
<g opacity="0.39">
<path d="M58.4932 446.699L-7 512.192V559.451L82.1228 470.328L58.4932 446.699Z" fill="#FFEDCC"/>
</g>
<g opacity="0.78">
<path d="M58.4869 446.701L34.857 470.331L174.155 609.629L197.785 585.999L58.4869 446.701Z" fill="#FFEDCC"/>
</g>
<g opacity="0.61">
<path d="M174.155 446.699L150.525 470.329L289.821 609.625L313.451 585.995L174.155 446.699Z" fill="#FFEDCC"/>
</g>
<g opacity="0.53">
<path d="M289.822 446.705L266.192 470.335L405.49 609.633L429.12 586.003L289.822 446.705Z" fill="#FFEDCC"/>
</g>
<g opacity="0.52">
<path d="M405.489 446.693L381.859 470.323L521.153 609.617L544.783 585.987L405.489 446.693Z" fill="#FFEDCC"/>
</g>
<g opacity="0.87">
<path d="M521.155 446.716L497.525 470.346L636.823 609.644L660.453 586.014L521.155 446.716Z" fill="#FFEDCC"/>
</g>
<g opacity="0.36">
<path d="M636.824 446.702L613.194 470.332L752.49 609.628L776.12 585.998L636.824 446.702Z" fill="#FFEDCC"/>
</g>
<g opacity="0.91">
<path d="M868.16 446.701L728.862 585.999L752.492 609.629L891.79 470.331L868.16 446.701Z" fill="#FFEDCC"/>
</g>
<g opacity="0.82">
<path d="M868.154 446.692L844.524 470.322L983.818 609.615L1007.45 585.985L868.154 446.692Z" fill="#FFEDCC"/>
</g>
<g opacity="0.96">
<path d="M1099.49 446.702L960.193 586L983.823 609.63L1123.12 470.332L1099.49 446.702Z" fill="#FFEDCC"/>
</g>
<g opacity="0.45">
<path d="M1215.15 446.706L1075.86 586L1099.49 609.63L1238.78 470.336L1215.15 446.706Z" fill="#FFEDCC"/>
</g>
<g opacity="0.63">
<path d="M1330.81 446.669L1191.51 585.969L1215.14 609.601L1354.44 470.301L1330.81 446.669Z" fill="#FFEDCC"/>
</g>
<g opacity="0.89">
<path d="M1330.8 446.658L1307.17 470.288L1446.46 609.579L1470.09 585.95L1330.8 446.658Z" fill="#FFEDCC"/>
</g>
<g opacity="0.78">
<path d="M1446.5 446.699L1422.87 470.331L1512 559.454V512.195L1446.5 446.699Z" fill="#FFEDCC"/>
</g>
<g opacity="0.36">
<path d="M58.4932 562.364L-7 627.86V675.119L82.1228 585.996L58.4932 562.364Z" fill="#FFEDCC"/>
</g>
<g opacity="0.32">
<path d="M174.156 562.364L34.8578 701.662L58.4877 725.292L197.786 585.994L174.156 562.364Z" fill="#FFEDCC"/>
</g>
<g opacity="0.64">
<path d="M174.158 562.361L150.528 585.991L289.826 725.289L313.456 701.659L174.158 562.361Z" fill="#FFEDCC"/>
</g>
<g opacity="0.6">
<path d="M289.821 562.365L266.191 585.994L405.489 725.292L429.119 701.663L289.821 562.365Z" fill="#FFEDCC"/>
</g>
<g opacity="0.4">
<path d="M521.156 562.365L381.86 701.661L405.49 725.291L544.786 585.995L521.156 562.365Z" fill="#FFEDCC"/>
</g>
<g opacity="0.4">
<path d="M521.153 562.376L497.523 586.006L636.824 725.306L660.454 701.676L521.153 562.376Z" fill="#FFEDCC"/>
</g>
<g opacity="0.98">
<path d="M636.824 562.36L613.194 585.99L752.492 725.288L776.122 701.658L636.824 562.36Z" fill="#FFEDCC"/>
</g>
<g opacity="0.57">
<path d="M752.49 562.366L728.86 585.996L868.158 725.294L891.788 701.665L752.49 562.366Z" fill="#FFEDCC"/>
</g>
<g opacity="0.72">
<path d="M868.153 562.349L844.523 585.979L983.819 725.274L1007.45 701.645L868.153 562.349Z" fill="#FFEDCC"/>
</g>
<g opacity="0.78">
<path d="M983.823 562.369L960.193 585.999L1099.49 725.297L1123.12 701.667L983.823 562.369Z" fill="#FFEDCC"/>
</g>
<g opacity="0.47">
<path d="M1215.16 562.371L1075.86 701.667L1099.49 725.296L1238.79 586L1215.16 562.371Z" fill="#FFEDCC"/>
</g>
<g opacity="0.47">
<path d="M1330.83 562.377L1191.53 701.68L1215.16 725.31L1354.46 586.007L1330.83 562.377Z" fill="#FFEDCC"/>
</g>
<g opacity="0.37">
<path d="M1446.51 562.421L1307.21 701.715L1330.84 725.345L1470.14 586.051L1446.51 562.421Z" fill="#FFEDCC"/>
</g>
<g opacity="0.68">
<path d="M1446.5 562.364L1422.87 585.996L1512 675.122V627.863L1446.5 562.364Z" fill="#FFEDCC"/>
</g>
<g opacity="0.92">
<path d="M58.4932 678.036L-7 743.526V790.788L82.1228 701.665L58.4932 678.036Z" fill="#FFEDCC"/>
</g>
<g opacity="0.43">
<path d="M58.4829 678.036L34.853 701.666L174.151 840.964L197.781 817.334L58.4829 678.036Z" fill="#FFEDCC"/>
</g>
<g opacity="0.32">
<path d="M289.821 678.027L150.525 817.323L174.155 840.953L313.451 701.657L289.821 678.027Z" fill="#FFEDCC"/>
</g>
<g opacity="0.37">
<path d="M289.818 678.04L266.188 701.669L405.486 840.968L429.116 817.338L289.818 678.04Z" fill="#FFEDCC"/>
</g>
<g opacity="0.34">
<path d="M521.153 678.028L381.859 817.322L405.489 840.952L544.783 701.658L521.153 678.028Z" fill="#FFEDCC"/>
</g>
<g opacity="0.37">
<path d="M521.151 678.055L497.521 701.685L636.819 840.983L660.449 817.353L521.151 678.055Z" fill="#FFEDCC"/>
</g>
<g opacity="0.8">
<path d="M752.488 678.034L613.192 817.33L636.822 840.96L776.118 701.664L752.488 678.034Z" fill="#FFEDCC"/>
</g>
<g opacity="0.9">
<path d="M868.157 678.026L728.859 817.324L752.489 840.954L891.787 701.656L868.157 678.026Z" fill="#FFEDCC"/>
</g>
<g opacity="0.94">
<path d="M868.155 678.026L844.526 701.656L983.819 840.95L1007.45 817.32L868.155 678.026Z" fill="#FFEDCC"/>
</g>
<g opacity="0.83">
<path d="M983.824 678.048L960.194 701.678L1099.49 840.976L1123.12 817.346L983.824 678.048Z" fill="#FFEDCC"/>
</g>
<g opacity="0.35">
<path d="M1099.49 678.024L1075.86 701.654L1215.15 840.948L1238.78 817.318L1099.49 678.024Z" fill="#FFEDCC"/>
</g>
<g opacity="0.83">
<path d="M1215.17 678.092L1191.54 701.722L1330.84 841.022L1354.47 817.392L1215.17 678.092Z" fill="#FFEDCC"/>
</g>
<g opacity="0.41">
<path d="M1330.81 677.984L1307.18 701.614L1446.47 840.906L1470.1 817.276L1330.81 677.984Z" fill="#FFEDCC"/>
</g>
<g opacity="0.97">
<path d="M1446.5 840.964L1512 775.468V728.206L1422.87 817.332L1446.5 840.964Z" fill="#FFEDCC"/>
</g>
<g opacity="0.6">
<path d="M82.1228 932.997L-7 843.875V891.137L58.4932 956.63L82.1228 932.997Z" fill="#FFEDCC"/>
</g>
<g opacity="0.52">
<path d="M174.154 793.697L34.8559 932.995L58.4858 956.625L197.784 817.327L174.154 793.697Z" fill="#FFEDCC"/>
</g>
<g opacity="0.77">
<path d="M289.82 793.699L150.524 932.995L174.154 956.625L313.45 817.329L289.82 793.699Z" fill="#FFEDCC"/>
</g>
<g opacity="0.39">
<path d="M405.49 793.699L266.192 932.997L289.821 956.626L429.119 817.328L405.49 793.699Z" fill="#FFEDCC"/>
</g>
<g opacity="0.64">
<path d="M521.153 793.702L381.859 932.996L405.489 956.625L544.783 817.332L521.153 793.702Z" fill="#FFEDCC"/>
</g>
<g opacity="0.41">
<path d="M521.148 793.722L497.518 817.352L636.816 956.65L660.446 933.02L521.148 793.722Z" fill="#FFEDCC"/>
</g>
<g opacity="0.71">
<path d="M752.488 793.71L613.192 933.006L636.822 956.636L776.118 817.34L752.488 793.71Z" fill="#FFEDCC"/>
</g>
<g opacity="0.89">
<path d="M752.488 793.712L728.858 817.342L868.156 956.64L891.786 933.01L752.488 793.712Z" fill="#FFEDCC"/>
</g>
<g opacity="0.88">
<path d="M983.822 793.704L844.528 932.998L868.158 956.628L1007.45 817.334L983.822 793.704Z" fill="#FFEDCC"/>
</g>
<g opacity="0.37">
<path d="M983.822 793.715L960.192 817.345L1099.49 956.643L1123.12 933.013L983.822 793.715Z" fill="#FFEDCC"/>
</g>
<g opacity="0.39">
<path d="M1099.49 793.689L1075.86 817.319L1215.15 956.613L1238.78 932.983L1099.49 793.689Z" fill="#FFEDCC"/>
</g>
<g opacity="0.86">
<path d="M1330.83 793.713L1191.53 933.013L1215.16 956.643L1354.46 817.343L1330.83 793.713Z" fill="#FFEDCC"/>
</g>
<g opacity="0.56">
<path d="M1446.49 793.708L1307.19 933L1330.82 956.629L1470.12 817.338L1446.49 793.708Z" fill="#FFEDCC"/>
</g>
<g opacity="0.77">
<path d="M1446.5 793.702L1422.87 817.331L1512 906.457V859.198L1446.5 793.702Z" fill="#FFEDCC"/>
</g>
</svg>
