<svg width="30" height="22" viewBox="0 0 30 22" fill="none" xmlns="http://www.w3.org/2000/svg">
<path d="M11.5 11H2.75C2.28587 11 1.84075 10.8156 1.51256 10.4874C1.18437 10.1592 1 9.71413 1 9.25V3.125C1 2.66087 1.18437 2.21575 1.51256 1.88756C1.84075 1.55937 2.28587 1.375 2.75 1.375H9.75C10.2141 1.375 10.6592 1.55937 10.9874 1.88756C11.3156 2.21575 11.5 2.66087 11.5 3.125V11ZM11.5 11C11.5 15.375 9.75 18 4.5 20.625M29 11H20.25C19.7859 11 19.3408 10.8156 19.0126 10.4874C18.6844 10.1592 18.5 9.71413 18.5 9.25V3.125C18.5 2.66087 18.6844 2.21575 19.0126 1.88756C19.3408 1.55937 19.7859 1.375 20.25 1.375H27.25C27.7141 1.375 28.1592 1.55937 28.4874 1.88756C28.8156 2.21575 29 2.66087 29 3.125V11ZM29 11C29 15.375 27.25 18 22 20.625" stroke="#333333" stroke-width="2" stroke-linecap="round"/>
</svg>
