<svg width="22" height="22" viewBox="0 0 22 22" fill="none" xmlns="http://www.w3.org/2000/svg">
<path d="M20.7963 20.8886L16.0246 16.1169M16.0246 16.1169C16.8408 15.3006 17.4883 14.3316 17.93 13.2652C18.3717 12.1987 18.5991 11.0557 18.5991 9.90139C18.5991 8.74706 18.3717 7.60404 17.93 6.53759C17.4883 5.47113 16.8408 4.50213 16.0246 3.6859C15.2083 2.86967 14.2393 2.2222 13.1729 1.78046C12.1064 1.33872 10.9634 1.11136 9.80907 1.11136C8.65475 1.11136 7.51173 1.33872 6.44527 1.78046C5.37882 2.2222 4.40981 2.86967 3.59358 3.6859C1.94513 5.33435 1.01904 7.57013 1.01904 9.90139C1.01904 12.2326 1.94513 14.4684 3.59358 16.1169C5.24203 17.7653 7.47781 18.6914 9.80907 18.6914C12.1403 18.6914 14.3761 17.7653 16.0246 16.1169Z" stroke="#FAFAFA" stroke-width="1.23608" stroke-linecap="round" stroke-linejoin="round"/>
</svg>
