<svg width="56" height="56" viewBox="0 0 56 56" fill="none" xmlns="http://www.w3.org/2000/svg">
<path d="M42.0001 42C47.1547 42 51.3334 33.6426 51.3334 23.3333C51.3334 13.024 47.1547 4.66663 42.0001 4.66663C36.8454 4.66663 32.6667 13.024 32.6667 23.3333C32.6667 33.6426 36.8454 42 42.0001 42Z" stroke="#F5FFFC" stroke-width="2" stroke-linecap="round" stroke-linejoin="round"/>
<path d="M42.0001 4.66663C34.7597 4.66663 19.7517 10.2153 11.1324 13.6593C7.18441 15.2366 4.66675 19.082 4.66675 23.3333C4.66675 27.5846 7.18675 31.43 11.1324 33.0073C19.7517 36.4513 34.7597 42 42.0001 42M25.6667 51.3333L21.1331 48.8366C18.7127 47.4971 16.7494 45.4628 15.4966 42.9964C14.2438 40.5299 13.7591 37.7446 14.1051 35" stroke="#F5FFFC" stroke-width="2" stroke-linecap="round" stroke-linejoin="round"/>
</svg>
