<svg width="56" height="56" viewBox="0 0 56 56" fill="none" xmlns="http://www.w3.org/2000/svg">
<path d="M23.3333 23.3334C23.3333 24.571 23.8249 25.758 24.7001 26.6332C25.5753 27.5084 26.7622 28 27.9999 28C29.2376 28 30.4246 27.5084 31.2997 26.6332C32.1749 25.758 32.6666 24.571 32.6666 23.3334C32.6666 22.0957 32.1749 20.9087 31.2997 20.0335C30.4246 19.1584 29.2376 18.6667 27.9999 18.6667C26.7622 18.6667 25.5753 19.1584 24.7001 20.0335C23.8249 20.9087 23.3333 22.0957 23.3333 23.3334Z" stroke="#F5FFFC" stroke-width="2" stroke-linecap="round" stroke-linejoin="round"/>
<path d="M42.5717 35C44.7697 32.2547 46.1474 28.9444 46.5462 25.4502C46.9451 21.9561 46.3487 18.4204 44.8259 15.2504C43.3031 12.0805 40.9157 9.40512 37.9389 7.53264C34.9621 5.66015 31.5168 4.66669 28 4.66669C24.4832 4.66669 21.0379 5.66015 18.0611 7.53264C15.0842 9.40512 12.6969 12.0805 11.1741 15.2504C9.65128 18.4204 9.05493 21.9561 9.45375 25.4502C9.85258 28.9444 11.2303 32.2547 13.4283 35M25.6667 42H30.3333M37.0767 15.4233L41.7713 10.7333M7 43.1667C7 39.8907 7 38.2504 7.707 37.0744C8.015 36.5657 8.407 36.127 8.86667 35.7864C9.926 35 11.4007 35 14.35 35H41.65C44.5993 35 46.074 35 47.1333 35.7864C47.593 36.127 47.985 36.5657 48.293 37.0744C49 38.2504 49 39.8907 49 43.1667C49 46.4427 49 48.083 48.293 49.259C47.985 49.7677 47.593 50.2064 47.1333 50.547C46.074 51.3334 44.5993 51.3334 41.65 51.3334H14.35C11.4007 51.3334 9.926 51.3334 8.86667 50.547C8.39914 50.1982 8.00505 49.7605 7.707 49.259C7 48.083 7 46.4427 7 43.1667Z" stroke="#F5FFFC" stroke-width="2" stroke-linecap="round" stroke-linejoin="round"/>
</svg>
