<svg width="56" height="56" viewBox="0 0 56 56" fill="none" xmlns="http://www.w3.org/2000/svg">
<path d="M36.379 41H34.647L35.513 42.5L40.709 51.5H38.9794L33.206 41.5L32.9174 41H32.34H23.681H23.1036L22.815 41.5L17.0416 51.5H15.312L20.508 42.5L21.374 41H19.642H8.75C8.55108 41 8.36032 40.921 8.21967 40.7803C8.07902 40.6397 8 40.4489 8 40.25V10.5V9.5H7H3.5C3.30109 9.5 3.11032 9.42098 2.96967 9.28033C2.82902 9.13968 2.75 8.94891 2.75 8.75C2.75 8.55109 2.82902 8.36032 2.96967 8.21967C3.11032 8.07902 3.30109 8 3.5 8H52.5C52.6989 8 52.8897 8.07902 53.0303 8.21967C53.171 8.36032 53.25 8.55108 53.25 8.75C53.25 8.94892 53.171 9.13968 53.0303 9.28033C52.8897 9.42098 52.6989 9.5 52.5 9.5H49H48V10.5V40.25C48 40.4489 47.921 40.6397 47.7803 40.7803C47.6397 40.921 47.4489 41 47.25 41H36.379ZM46.5 10.5V9.5H45.5H10.5H9.5V10.5V38.5V39.5H10.5H45.5H46.5V38.5V10.5ZM19.25 25.5C19.4489 25.5 19.6397 25.579 19.7803 25.7197C19.921 25.8603 20 26.0511 20 26.25V29.75C20 29.9489 19.921 30.1397 19.7803 30.2803C19.6397 30.421 19.4489 30.5 19.25 30.5C19.0511 30.5 18.8603 30.421 18.7197 30.2803C18.579 30.1397 18.5 29.9489 18.5 29.75V26.25C18.5 26.0511 18.579 25.8603 18.7197 25.7197C18.8603 25.579 19.0511 25.5 19.25 25.5ZM28 22C28.1989 22 28.3897 22.079 28.5303 22.2197C28.671 22.3603 28.75 22.5511 28.75 22.75V29.75C28.75 29.9489 28.671 30.1397 28.5303 30.2803C28.3897 30.421 28.1989 30.5 28 30.5C27.8011 30.5 27.6103 30.421 27.4697 30.2803C27.329 30.1397 27.25 29.9489 27.25 29.75V22.75C27.25 22.5511 27.329 22.3603 27.4697 22.2197C27.6103 22.079 27.8011 22 28 22ZM36.75 18.5C36.9489 18.5 37.1397 18.579 37.2803 18.7197C37.421 18.8603 37.5 19.0511 37.5 19.25V29.75C37.5 29.9489 37.421 30.1397 37.2803 30.2803C37.1397 30.421 36.9489 30.5 36.75 30.5C36.5511 30.5 36.3603 30.421 36.2197 30.2803C36.079 30.1397 36 29.9489 36 29.75V19.25C36 19.0511 36.079 18.8603 36.2197 18.7197C36.3603 18.579 36.5511 18.5 36.75 18.5Z" fill="black" stroke="#F5FFFC" stroke-width="2"/>
</svg>
