<svg width="56" height="56" viewBox="0 0 56 56" fill="none" xmlns="http://www.w3.org/2000/svg">
<path d="M4.8125 40.5625H3.8125V41.5625V45.5C3.8125 45.5829 3.77957 45.6624 3.72097 45.721L4.42808 46.4281L3.72097 45.721C3.66237 45.7796 3.58288 45.8125 3.5 45.8125C3.41712 45.8125 3.33763 45.7796 3.27903 45.721L2.57354 46.4265L3.27903 45.721C3.22043 45.6624 3.1875 45.5829 3.1875 45.5V12.25C3.1875 12.1671 3.22042 12.0876 3.27903 12.029C3.33763 11.9704 3.41712 11.9375 3.5 11.9375H50.75C51.297 11.9375 51.8216 12.1548 52.2084 12.5416L52.9129 11.8371L52.2084 12.5416C52.5952 12.9284 52.8125 13.453 52.8125 14V38.5C52.8125 39.047 52.5952 39.5716 52.2084 39.9584C51.8216 40.3452 51.297 40.5625 50.75 40.5625H25.8125H24.8125V41.5625V45.5C24.8125 45.5829 24.7796 45.6624 24.721 45.721L25.4281 46.4281L24.721 45.721C24.6624 45.7796 24.5829 45.8125 24.5 45.8125C24.4171 45.8125 24.3376 45.7796 24.279 45.721L23.5719 46.4281L24.279 45.721C24.2204 45.6624 24.1875 45.5829 24.1875 45.5V41.5625V40.5625H23.1875H18.8125H17.8125V41.5625V45.5C17.8125 45.5829 17.7796 45.6624 17.721 45.721L18.4281 46.4281L17.721 45.721C17.6624 45.7796 17.5829 45.8125 17.5 45.8125C17.4171 45.8125 17.3376 45.7796 17.279 45.721L16.5719 46.4281L17.279 45.721C17.2204 45.6624 17.1875 45.5829 17.1875 45.5V41.5625V40.5625H16.1875H11.8125H10.8125V41.5625V45.5C10.8125 45.5829 10.7796 45.6624 10.721 45.721L11.4281 46.4281L10.721 45.721C10.6624 45.7796 10.5829 45.8125 10.5 45.8125C10.4171 45.8125 10.3376 45.7796 10.279 45.721L9.57192 46.4281L10.279 45.721C10.2204 45.6624 10.1875 45.5829 10.1875 45.5V41.5625V40.5625H9.1875H4.8125ZM51.7665 39.5165L51.0594 38.8094L51.7665 39.5165C52.0361 39.2469 52.1875 38.8812 52.1875 38.5V14C52.1875 13.6188 52.0361 13.2531 51.7665 12.9835C51.4969 12.7139 51.1312 12.5625 50.75 12.5625H4.8125H3.8125V13.5625V38.9375V39.9375H4.8125H50.75C51.1312 39.9375 51.4969 39.7861 51.7665 39.5165ZM42.6316 29.9409L43.5233 30.8325L44.1875 26.25L45.1875 26.2494C45.1875 26.2492 45.1875 26.249 45.1875 26.2487C45.1867 25.0591 44.8686 23.8913 44.266 22.8656L43.4038 23.3722L44.266 22.8656C43.6633 21.8397 42.7978 20.9932 41.7587 20.4134C40.7197 19.8336 39.5448 19.5416 38.3553 19.5673C37.1657 19.5931 36.0046 19.9357 34.9916 20.5599L33.9145 21.2237L34.8091 22.1184L42.6316 29.9409ZM34.3684 22.5591L33.4767 21.6675L32.8125 26.25L31.8125 26.2506C31.8125 26.2508 31.8125 26.251 31.8125 26.2513C31.8133 27.4409 32.1314 28.6087 32.734 29.6344C33.3367 30.6603 34.2022 31.5068 35.2413 32.0866C36.2803 32.6663 37.4552 32.9584 38.6447 32.9327C39.8343 32.9069 40.9954 32.5643 42.0084 31.9401L43.0855 31.2763L42.1909 30.3816L34.3684 22.5591ZM21.6316 29.9409L22.5233 30.8325L23.1875 26.25L24.1875 26.2494C24.1875 26.2492 24.1875 26.249 24.1875 26.2487C24.1867 25.0591 23.8686 23.8913 23.266 22.8656C22.6633 21.8397 21.7978 20.9932 20.7587 20.4134C19.7197 19.8336 18.5448 19.5416 17.3553 19.5673C16.1657 19.5931 15.0046 19.9357 13.9916 20.5599L12.9145 21.2237L13.8091 22.1184L21.6316 29.9409ZM11.8116 22.7388C11.1572 23.7931 10.8111 25.0097 10.8125 26.2506C10.8132 27.4404 11.1313 28.6085 11.734 29.6344C12.3367 30.6603 13.2022 31.5068 14.2413 32.0866C15.2803 32.6663 16.4552 32.9584 17.6447 32.9327C18.8343 32.9069 19.9954 32.5643 21.0084 31.9401L22.0855 31.2763L21.1909 30.3816L13.3684 22.5591L12.4767 21.6675L11.8116 22.7388ZM34.4374 20.1699C35.6399 19.3664 37.0537 18.9375 38.5 18.9375C40.4394 18.9375 42.2994 19.7079 43.6707 21.0793C45.0421 22.4506 45.8125 24.3106 45.8125 26.25C45.8125 27.6963 45.3836 29.1101 44.5801 30.3126C43.7766 31.5151 42.6346 32.4524 41.2984 33.0059C39.9622 33.5593 38.4919 33.7041 37.0734 33.422C35.6549 33.1398 34.352 32.4434 33.3293 31.4207C32.3066 30.398 31.6102 29.0951 31.328 27.6766C31.0459 26.2581 31.1907 24.7878 31.7441 23.4516C32.2976 22.1154 33.2349 20.9734 34.4374 20.1699ZM13.4374 20.1699C14.6399 19.3664 16.0537 18.9375 17.5 18.9375C19.4394 18.9375 21.2994 19.7079 22.6707 21.0793C24.0421 22.4506 24.8125 24.3106 24.8125 26.25C24.8125 27.6963 24.3836 29.1101 23.5801 30.3126C22.7766 31.5151 21.6346 32.4524 20.2984 33.0059C18.9622 33.5593 17.4919 33.7041 16.0734 33.422C14.6549 33.1398 13.352 32.4434 12.3293 31.4207C11.3066 30.398 10.6102 29.0951 10.328 27.6766C10.0459 26.2581 10.1907 24.7878 10.7441 23.4516C11.2976 22.1154 12.2349 20.9734 13.4374 20.1699Z" fill="black" stroke="#F5FFFC" stroke-width="2"/>
</svg>
