<svg width="56" height="56" viewBox="0 0 56 56" fill="none" xmlns="http://www.w3.org/2000/svg">
<path d="M27.9954 4.66666C20.9768 4.66666 16.4268 9.37766 11.0461 11.095C8.85743 11.795 7.76309 12.1427 7.31976 12.635C6.87643 13.125 6.74809 13.846 6.48909 15.2833C3.71243 30.674 9.77909 44.9027 24.2458 50.442C25.7974 51.037 26.5744 51.3333 28.0024 51.3333C29.4304 51.3333 30.2098 51.0347 31.7638 50.4397C46.2281 44.9027 52.2878 30.674 49.5111 15.2833C49.2521 13.846 49.1214 13.125 48.6781 12.6327C48.2348 12.1403 47.1428 11.7927 44.9541 11.095C39.5711 9.37766 35.0141 4.66666 27.9954 4.66666Z" stroke="#F5FFFC" stroke-width="2" stroke-linecap="round" stroke-linejoin="round"/>
<path d="M23.9167 23.2377C23.9167 23.0977 23.9353 22.2903 23.94 21.2777C23.94 20.349 23.8607 19.4577 24.304 18.641C25.9607 15.3417 30.7207 15.6777 31.8967 19.0377C32.0997 19.5907 32.1137 20.4657 32.1067 21.2777C32.0997 22.3113 32.1207 23.2377 32.1207 23.2377M24.1197 24.22C21.5997 24.22 20.3397 26.04 20.0597 27.16C19.7797 28.28 19.7797 32.34 19.9477 34.02C20.5077 36.12 21.9077 36.988 23.2797 37.268C24.5397 37.38 29.8597 37.338 31.3997 37.338C33.6397 37.38 35.3197 36.54 36.0197 34.02C36.1597 33.18 36.2997 28.56 35.9497 27.16C35.2077 24.92 33.3597 24.22 31.9597 24.22H24.1197Z" stroke="#F5FFFC" stroke-width="2" stroke-linecap="round" stroke-linejoin="round"/>
</svg>
