<svg width="56" height="56" viewBox="0 0 56 56" fill="none" xmlns="http://www.w3.org/2000/svg">
<mask id="path-1-inside-1_721_1281" fill="white">
<path d="M14.0944 5.96515C14.6031 6.19732 14.9344 6.70015 14.9473 7.25899C14.9939 9.33799 15.7289 10.5105 16.5748 11.6818L16.8104 12.0062C17.6271 13.1157 18.6666 14.5285 18.6666 16.6227C18.6666 17.624 18.4323 18.6115 17.9824 19.5061C17.5325 20.4008 16.8794 21.1776 16.0754 21.7747C16.8186 22.4315 17.3378 23.2563 17.7029 24.1138C18.5196 26.0377 18.6666 28.3897 18.6666 30.2715C18.6666 33.3515 18.1906 38.0648 17.3179 42.0315C16.8828 44.0067 16.3321 45.8815 15.6496 47.2967C15.3113 48.0002 14.9018 48.6698 14.3978 49.182C13.8903 49.6977 13.1704 50.1667 12.2546 50.1667C11.3388 50.1667 10.6189 49.6988 10.1114 49.1832C9.60742 48.6698 9.19792 48.0013 8.85842 47.2978C8.17475 45.8827 7.62175 44.0078 7.18659 42.0327C6.31159 38.066 5.83325 33.3527 5.83325 30.2727C5.83325 28.3885 5.98259 26.0365 6.80275 24.1127C7.16792 23.2552 7.68709 22.4327 8.42909 21.7782C7.62363 21.1812 6.96927 20.4038 6.51848 19.5082C6.06769 18.6127 5.833 17.6241 5.83325 16.6215C5.83325 15.0862 6.02925 13.6127 7.06875 11.8965C8.05575 10.2655 9.76025 8.49099 12.5579 6.16932C12.7689 5.9943 13.025 5.88232 13.2968 5.8462C13.5686 5.81009 13.845 5.85132 14.0944 5.96515ZM9.56309 13.4085C8.88642 14.5238 8.74992 15.421 8.74992 16.6227C8.74992 17.5509 9.11867 18.4411 9.77504 19.0975C10.4314 19.7539 11.3217 20.1227 12.2499 20.1227C13.1782 20.1227 14.0684 19.7539 14.7248 19.0975C15.3812 18.4411 15.7499 17.5509 15.7499 16.6227C15.7499 15.5178 15.2704 14.8552 14.3896 13.6383L14.2088 13.3875C13.5823 12.5183 12.9009 11.4952 12.4704 10.1115C10.9748 11.4893 10.0928 12.5335 9.56309 13.4073M9.48609 25.2548C8.91092 26.6023 8.74992 28.4492 8.74992 30.2715C8.74992 33.131 9.20375 37.6355 10.0344 41.4015C10.4521 43.2938 10.9468 44.9132 11.4846 46.0273C11.7553 46.5873 12.0003 46.942 12.1916 47.1357C12.2149 47.1598 12.2359 47.18 12.2546 47.1963C12.2733 47.1808 12.2943 47.1609 12.3176 47.1368C12.5078 46.942 12.7528 46.5885 13.0223 46.0285C13.5589 44.9143 14.0536 43.295 14.4689 41.4027C15.2984 37.6355 15.7499 33.131 15.7499 30.2703C15.7499 28.4468 15.5913 26.6012 15.0184 25.2537C14.7408 24.6003 14.3954 24.1372 13.9894 23.8338C13.5998 23.5433 13.0608 23.3322 12.2546 23.3322C11.4484 23.3322 10.9083 23.5433 10.5163 23.8338C10.1103 24.1372 9.76375 24.6038 9.48609 25.2548ZM24.4999 11.0833C22.8513 11.0822 21.2231 11.4489 19.7341 12.1567C19.4152 11.6243 19.0661 11.1105 18.6888 10.6178L18.4671 10.318C18.3267 10.1262 18.1917 9.93048 18.0623 9.73115C20.0513 8.69996 22.2595 8.16331 24.4999 8.16665C31.8383 8.16665 37.8583 13.8133 38.4521 21H42.8749C44.8088 21 46.6635 21.7682 48.0309 23.1357C49.3984 24.5031 50.1666 26.3578 50.1666 28.2917V40.5417C50.1666 42.4755 49.3984 44.3302 48.0309 45.6976C46.6635 47.0651 44.8088 47.8333 42.8749 47.8333H30.6249C28.691 47.8333 26.8364 47.0651 25.4689 45.6976C24.1015 44.3302 23.3333 42.4755 23.3333 40.5417V36.1188C22.4372 36.0448 21.5503 35.8846 20.6849 35.6405C20.7893 34.6497 20.8703 33.6566 20.9276 32.662C21.7071 32.9275 22.5141 33.1044 23.3333 33.1893V28.2917C23.3333 26.3578 24.1015 24.5031 25.4689 23.1357C26.8364 21.7682 28.691 21 30.6249 21H35.5226C34.9393 15.4268 30.2271 11.0833 24.4999 11.0833ZM42.8749 23.9167H38.3914C38.0019 27.0008 36.5974 29.8678 34.3993 32.066C32.2011 34.2642 29.3341 35.6686 26.2499 36.0582V40.5417C26.2499 41.702 26.7109 42.8148 27.5313 43.6352C28.3518 44.4557 29.4646 44.9167 30.6249 44.9167H42.8749C44.0352 44.9167 45.148 44.4557 45.9685 43.6352C46.789 42.8148 47.2499 41.702 47.2499 40.5417V28.2917C47.2499 27.1313 46.789 26.0185 45.9685 25.1981C45.148 24.3776 44.0352 23.9167 42.8749 23.9167ZM26.2499 33.1123C28.5553 32.7421 30.6852 31.6541 32.3363 30.003C33.9873 28.3519 35.0754 26.2221 35.4456 23.9167H30.6249C29.4646 23.9167 28.3518 24.3776 27.5313 25.1981C26.7109 26.0185 26.2499 27.1313 26.2499 28.2917V33.1123Z"/>
</mask>
<path d="M14.0944 5.96515C14.6031 6.19732 14.9344 6.70015 14.9473 7.25899C14.9939 9.33799 15.7289 10.5105 16.5748 11.6818L16.8104 12.0062C17.6271 13.1157 18.6666 14.5285 18.6666 16.6227C18.6666 17.624 18.4323 18.6115 17.9824 19.5061C17.5325 20.4008 16.8794 21.1776 16.0754 21.7747C16.8186 22.4315 17.3378 23.2563 17.7029 24.1138C18.5196 26.0377 18.6666 28.3897 18.6666 30.2715C18.6666 33.3515 18.1906 38.0648 17.3179 42.0315C16.8828 44.0067 16.3321 45.8815 15.6496 47.2967C15.3113 48.0002 14.9018 48.6698 14.3978 49.182C13.8903 49.6977 13.1704 50.1667 12.2546 50.1667C11.3388 50.1667 10.6189 49.6988 10.1114 49.1832C9.60742 48.6698 9.19792 48.0013 8.85842 47.2978C8.17475 45.8827 7.62175 44.0078 7.18659 42.0327C6.31159 38.066 5.83325 33.3527 5.83325 30.2727C5.83325 28.3885 5.98259 26.0365 6.80275 24.1127C7.16792 23.2552 7.68709 22.4327 8.42909 21.7782C7.62363 21.1812 6.96927 20.4038 6.51848 19.5082C6.06769 18.6127 5.833 17.6241 5.83325 16.6215C5.83325 15.0862 6.02925 13.6127 7.06875 11.8965C8.05575 10.2655 9.76025 8.49099 12.5579 6.16932C12.7689 5.9943 13.025 5.88232 13.2968 5.8462C13.5686 5.81009 13.845 5.85132 14.0944 5.96515ZM9.56309 13.4085C8.88642 14.5238 8.74992 15.421 8.74992 16.6227C8.74992 17.5509 9.11867 18.4411 9.77504 19.0975C10.4314 19.7539 11.3217 20.1227 12.2499 20.1227C13.1782 20.1227 14.0684 19.7539 14.7248 19.0975C15.3812 18.4411 15.7499 17.5509 15.7499 16.6227C15.7499 15.5178 15.2704 14.8552 14.3896 13.6383L14.2088 13.3875C13.5823 12.5183 12.9009 11.4952 12.4704 10.1115C10.9748 11.4893 10.0928 12.5335 9.56309 13.4073M9.48609 25.2548C8.91092 26.6023 8.74992 28.4492 8.74992 30.2715C8.74992 33.131 9.20375 37.6355 10.0344 41.4015C10.4521 43.2938 10.9468 44.9132 11.4846 46.0273C11.7553 46.5873 12.0003 46.942 12.1916 47.1357C12.2149 47.1598 12.2359 47.18 12.2546 47.1963C12.2733 47.1808 12.2943 47.1609 12.3176 47.1368C12.5078 46.942 12.7528 46.5885 13.0223 46.0285C13.5589 44.9143 14.0536 43.295 14.4689 41.4027C15.2984 37.6355 15.7499 33.131 15.7499 30.2703C15.7499 28.4468 15.5913 26.6012 15.0184 25.2537C14.7408 24.6003 14.3954 24.1372 13.9894 23.8338C13.5998 23.5433 13.0608 23.3322 12.2546 23.3322C11.4484 23.3322 10.9083 23.5433 10.5163 23.8338C10.1103 24.1372 9.76375 24.6038 9.48609 25.2548ZM24.4999 11.0833C22.8513 11.0822 21.2231 11.4489 19.7341 12.1567C19.4152 11.6243 19.0661 11.1105 18.6888 10.6178L18.4671 10.318C18.3267 10.1262 18.1917 9.93048 18.0623 9.73115C20.0513 8.69996 22.2595 8.16331 24.4999 8.16665C31.8383 8.16665 37.8583 13.8133 38.4521 21H42.8749C44.8088 21 46.6635 21.7682 48.0309 23.1357C49.3984 24.5031 50.1666 26.3578 50.1666 28.2917V40.5417C50.1666 42.4755 49.3984 44.3302 48.0309 45.6976C46.6635 47.0651 44.8088 47.8333 42.8749 47.8333H30.6249C28.691 47.8333 26.8364 47.0651 25.4689 45.6976C24.1015 44.3302 23.3333 42.4755 23.3333 40.5417V36.1188C22.4372 36.0448 21.5503 35.8846 20.6849 35.6405C20.7893 34.6497 20.8703 33.6566 20.9276 32.662C21.7071 32.9275 22.5141 33.1044 23.3333 33.1893V28.2917C23.3333 26.3578 24.1015 24.5031 25.4689 23.1357C26.8364 21.7682 28.691 21 30.6249 21H35.5226C34.9393 15.4268 30.2271 11.0833 24.4999 11.0833ZM42.8749 23.9167H38.3914C38.0019 27.0008 36.5974 29.8678 34.3993 32.066C32.2011 34.2642 29.3341 35.6686 26.2499 36.0582V40.5417C26.2499 41.702 26.7109 42.8148 27.5313 43.6352C28.3518 44.4557 29.4646 44.9167 30.6249 44.9167H42.8749C44.0352 44.9167 45.148 44.4557 45.9685 43.6352C46.789 42.8148 47.2499 41.702 47.2499 40.5417V28.2917C47.2499 27.1313 46.789 26.0185 45.9685 25.1981C45.148 24.3776 44.0352 23.9167 42.8749 23.9167ZM26.2499 33.1123C28.5553 32.7421 30.6852 31.6541 32.3363 30.003C33.9873 28.3519 35.0754 26.2221 35.4456 23.9167H30.6249C29.4646 23.9167 28.3518 24.3776 27.5313 25.1981C26.7109 26.0185 26.2499 27.1313 26.2499 28.2917V33.1123Z" fill="black"/>
<path d="M14.0944 5.96515L13.264 7.7846L13.264 7.7846L14.0944 5.96515ZM14.9473 7.25899L16.9467 7.21411L16.9467 7.21307L14.9473 7.25899ZM16.5748 11.6818L14.9533 12.8527L14.9568 12.8575L16.5748 11.6818ZM16.8104 12.0062L15.1924 13.1818L15.1997 13.1917L16.8104 12.0062ZM18.6666 16.6227H16.6666V16.6228L18.6666 16.6227ZM16.0754 21.7747L14.8831 20.169L12.9026 21.6396L14.7509 23.2732L16.0754 21.7747ZM17.7029 24.1138L19.5439 23.3323L19.543 23.3302L17.7029 24.1138ZM17.3179 42.0315L19.2711 42.4618L19.2712 42.4612L17.3179 42.0315ZM15.6496 47.2967L13.8481 46.4279L13.8472 46.4298L15.6496 47.2967ZM14.3978 49.182L15.8232 50.5849L15.8233 50.5848L14.3978 49.182ZM10.1114 49.1832L8.68429 50.5843L8.68596 50.586L10.1114 49.1832ZM8.85842 47.2978L10.6596 46.4286L10.6593 46.4278L8.85842 47.2978ZM7.18659 42.0327L9.13974 41.6023L9.13963 41.6018L7.18659 42.0327ZM6.80275 24.1127L8.64254 24.897L8.64285 24.8963L6.80275 24.1127ZM8.42909 21.7782L9.75209 23.278L11.6056 21.6431L9.61999 20.1714L8.42909 21.7782ZM5.83325 16.6215L7.83325 16.622V16.6215H5.83325ZM7.06875 11.8965L8.77941 12.9327L8.77984 12.932L7.06875 11.8965ZM12.5579 6.16932L11.2812 4.62988L11.2807 4.63025L12.5579 6.16932ZM8.74992 16.6227H10.7499H8.74992ZM15.7499 16.6227H13.7499H15.7499ZM14.3896 13.6383L12.7672 14.8079L12.7695 14.8111L14.3896 13.6383ZM14.2088 13.3875L12.5863 14.557L12.5864 14.5571L14.2088 13.3875ZM12.4704 10.1115L14.3801 9.51732L13.4408 6.49826L11.1153 8.64052L12.4704 10.1115ZM9.48609 25.2548L11.3255 26.04L11.3257 26.0395L9.48609 25.2548ZM10.0344 41.4015L8.08136 41.8323L8.08142 41.8325L10.0344 41.4015ZM11.4846 46.0273L9.68346 46.8968L9.68389 46.8977L11.4846 46.0273ZM12.1916 47.1357L13.6288 45.7448L13.6216 45.7374L13.6143 45.73L12.1916 47.1357ZM12.2546 47.1963L10.9376 48.7015L12.2229 49.8261L13.535 48.7328L12.2546 47.1963ZM12.3176 47.1368L10.8863 45.7398L10.8804 45.746L12.3176 47.1368ZM13.0223 46.0285L11.2204 45.1606L11.2201 45.1612L13.0223 46.0285ZM14.4689 41.4027L12.5157 40.9726L12.5154 40.9739L14.4689 41.4027ZM15.0184 25.2537L13.1778 26.0359L13.1778 26.0361L15.0184 25.2537ZM13.9894 23.8338L15.1865 22.2316L15.1848 22.2304L13.9894 23.8338ZM10.5163 23.8338L9.32544 22.2269L9.3192 22.2316L10.5163 23.8338ZM24.4999 11.0833L24.4985 13.0833H24.4999V11.0833ZM19.7341 12.1567L18.0184 13.1844L18.952 14.7429L20.5927 13.963L19.7341 12.1567ZM18.6888 10.6178L17.0805 11.8068L17.0907 11.8205L17.101 11.834L18.6888 10.6178ZM18.4671 10.318L16.853 11.499L16.8589 11.5069L18.4671 10.318ZM18.0623 9.73115L17.1417 7.95559L15.1834 8.97087L16.3851 10.8207L18.0623 9.73115ZM24.4999 8.16665L24.4969 10.1667H24.4999V8.16665ZM38.4521 21L36.4589 21.1647L36.6105 23H38.4521V21ZM42.8749 21V19V21ZM50.1666 28.2917H52.1666H50.1666ZM42.8749 47.8333V49.8333V47.8333ZM23.3333 40.5417H21.3333H23.3333ZM23.3333 36.1188H25.3333V34.2772L23.4979 34.1256L23.3333 36.1188ZM20.6849 35.6405L18.6959 35.4308L18.5192 37.1076L20.1419 37.5654L20.6849 35.6405ZM20.9276 32.662L21.5725 30.7688L19.0823 29.9205L18.9309 32.5469L20.9276 32.662ZM23.3333 33.1893L23.1271 35.1787L25.3333 35.4073V33.1893H23.3333ZM23.3333 28.2917H21.3333H23.3333ZM30.6249 21V23V21ZM35.5226 21V23H37.7428L37.5117 20.7918L35.5226 21ZM38.3914 23.9167V21.9167H36.6281L36.4072 23.666L38.3914 23.9167ZM26.2499 36.0582L25.9993 34.0739L24.2499 34.2949V36.0582H26.2499ZM26.2499 33.1123H24.2499V35.4591L26.567 35.087L26.2499 33.1123ZM35.4456 23.9167L37.4203 24.2337L37.7923 21.9167H35.4456V23.9167ZM13.264 7.7846C13.0752 7.69841 12.9525 7.51228 12.9478 7.3049L16.9467 7.21307C16.9163 5.88803 16.131 4.69623 14.9249 4.14571L13.264 7.7846ZM12.9478 7.30387C13.0077 9.97303 14.0088 11.5447 14.9533 12.8527L18.1962 10.511C17.449 9.47624 16.9802 8.70295 16.9467 7.21411L12.9478 7.30387ZM14.9568 12.8575L15.1924 13.1818L18.4284 10.8305L18.1927 10.5062L14.9568 12.8575ZM15.1997 13.1917C16.023 14.3103 16.6666 15.2476 16.6666 16.6227H20.6666C20.6666 13.8094 19.2311 11.921 18.4211 10.8206L15.1997 13.1917ZM16.6666 16.6228C16.6666 17.312 16.5053 17.9917 16.1956 18.6075L19.7691 20.4048C20.3593 19.2313 20.6667 17.936 20.6666 16.6225L16.6666 16.6228ZM16.1956 18.6075C15.886 19.2233 15.4364 19.758 14.8831 20.169L17.2678 23.3804C18.3223 22.5973 19.179 21.5782 19.7691 20.4048L16.1956 18.6075ZM14.7509 23.2732C15.2162 23.6845 15.5816 24.237 15.8628 24.8974L19.543 23.3302C19.0939 22.2757 18.421 21.1785 17.3999 20.2761L14.7509 23.2732ZM15.8619 24.8953C16.5114 26.4254 16.6666 28.4317 16.6666 30.2715H20.6666C20.6666 28.3476 20.5277 25.6499 19.5439 23.3323L15.8619 24.8953ZM16.6666 30.2715C16.6666 33.2016 16.2074 37.7708 15.3646 41.6018L19.2712 42.4612C20.1737 38.3588 20.6666 33.5014 20.6666 30.2715H16.6666ZM15.3648 41.6012C14.9421 43.5195 14.4312 45.2189 13.8481 46.4279L17.451 48.1654C18.233 46.5441 18.8234 44.4938 19.2711 42.4618L15.3648 41.6012ZM13.8472 46.4298C13.557 47.0332 13.2607 47.486 12.9722 47.7792L15.8233 50.5848C16.5428 49.8536 17.0655 48.9671 17.452 48.1635L13.8472 46.4298ZM12.9723 47.7791C12.6796 48.0765 12.4416 48.1667 12.2546 48.1667V52.1667C13.8992 52.1667 15.1009 51.3188 15.8232 50.5849L12.9723 47.7791ZM12.2546 48.1667C12.066 48.1667 11.828 48.0761 11.5369 47.7803L8.68596 50.586C9.40983 51.3216 10.6115 52.1667 12.2546 52.1667V48.1667ZM11.5385 47.782C11.2479 47.486 10.951 47.0323 10.6596 46.4286L7.05719 48.1671C7.44485 48.9703 7.96692 49.8537 8.68429 50.5843L11.5385 47.782ZM10.6593 46.4278C10.075 45.2185 9.56198 43.5188 9.13974 41.6023L5.23343 42.463C5.68153 44.4968 6.27446 46.5468 7.05756 48.1678L10.6593 46.4278ZM9.13963 41.6018C8.29457 37.7709 7.83325 33.202 7.83325 30.2727H3.83325C3.83325 33.5033 4.3286 38.3611 5.23354 42.4635L9.13963 41.6018ZM7.83325 30.2727C7.83325 28.4321 7.99051 26.4264 8.64254 24.897L4.96296 23.3283C3.97466 25.6465 3.83325 28.3448 3.83325 30.2727H7.83325ZM8.64285 24.8963C8.9235 24.2372 9.28823 23.6872 9.75209 23.278L7.10608 20.2783C6.08594 21.1781 5.41234 22.2731 4.96265 23.329L8.64285 24.8963ZM9.61999 20.1714C9.06559 19.7605 8.61519 19.2254 8.3049 18.609L4.73206 20.4075C5.32336 21.5821 6.18167 22.6019 7.23818 23.3849L9.61999 20.1714ZM8.3049 18.609C7.99462 17.9926 7.83308 17.3121 7.83325 16.622L3.83325 16.621C3.83293 17.9361 4.14076 19.2329 4.73206 20.4075L8.3049 18.609ZM7.83325 16.6215C7.83325 15.3158 7.98892 14.2377 8.77941 12.9327L5.35809 10.8603C4.06958 12.9876 3.83325 14.8565 3.83325 16.6215H7.83325ZM8.77984 12.932C9.58854 11.5956 11.0808 9.99409 13.8351 7.70839L11.2807 4.63025C8.4397 6.98788 6.52297 8.93539 5.35767 10.861L8.77984 12.932ZM13.8347 7.70876C13.7563 7.77377 13.6612 7.81536 13.5602 7.82878L13.0334 3.86363C12.3889 3.94927 11.7816 4.21484 11.2812 4.62988L13.8347 7.70876ZM13.5602 7.82878C13.4593 7.84219 13.3566 7.82688 13.264 7.7846L14.9249 4.14571C14.3334 3.87576 13.6778 3.77799 13.0334 3.86363L13.5602 7.82878ZM7.85317 12.3711C6.92655 13.8984 6.74992 15.1919 6.74992 16.6227H10.7499C10.7499 15.6501 10.8463 15.1492 11.273 14.4459L7.85317 12.3711ZM6.74992 16.6227C6.74992 18.0813 7.32938 19.4803 8.36083 20.5117L11.1893 17.6833C10.908 17.402 10.7499 17.0205 10.7499 16.6227H6.74992ZM8.36083 20.5117C9.39228 21.5432 10.7912 22.1227 12.2499 22.1227V18.1227C11.8521 18.1227 11.4706 17.9646 11.1893 17.6833L8.36083 20.5117ZM12.2499 22.1227C13.7086 22.1227 15.1076 21.5432 16.139 20.5117L13.3106 17.6833C13.0293 17.9646 12.6477 18.1227 12.2499 18.1227V22.1227ZM16.139 20.5117C17.1705 19.4803 17.7499 18.0813 17.7499 16.6227H13.7499C13.7499 17.0205 13.5919 17.402 13.3106 17.6833L16.139 20.5117ZM17.7499 16.6227C17.7499 14.7692 16.8254 13.5925 16.0097 12.4656L12.7695 14.8111C13.2408 15.4621 13.4718 15.7906 13.6144 16.0733C13.7157 16.2741 13.7499 16.4093 13.7499 16.6227H17.7499ZM16.0119 12.4687L15.8311 12.2179L12.5864 14.5571L12.7672 14.8079L16.0119 12.4687ZM15.8312 12.218C15.2407 11.3988 14.7128 10.5867 14.3801 9.51732L10.5607 10.7057C11.089 12.4036 11.9238 13.6378 12.5863 14.557L15.8312 12.218ZM11.1153 8.64052C9.55224 10.0805 8.51958 11.2705 7.85275 12.3706L11.2734 14.444C11.6659 13.7965 12.3973 12.8982 13.8255 11.5825L11.1153 8.64052ZM7.64664 24.4697C6.90239 26.2133 6.74992 28.4086 6.74992 30.2715H10.7499C10.7499 28.4897 10.9194 26.9913 11.3255 26.04L7.64664 24.4697ZM6.74992 30.2715C6.74992 33.2817 7.22077 37.9306 8.08136 41.8323L11.9875 40.9707C11.1867 37.3404 10.7499 32.9803 10.7499 30.2715H6.74992ZM8.08142 41.8325C8.51179 43.7824 9.04629 45.5768 9.68346 46.8968L13.2857 45.1579C12.8472 44.2495 12.3924 42.8052 11.9874 40.9704L8.08142 41.8325ZM9.68389 46.8977C10.0006 47.5529 10.3592 48.1266 10.7688 48.5413L13.6143 45.73C13.6394 45.7554 13.6127 45.7333 13.5442 45.628C13.4791 45.5281 13.3908 45.3752 13.2853 45.157L9.68389 46.8977ZM10.7544 48.5265C10.8038 48.5776 10.8658 48.6386 10.9376 48.7015L13.5716 45.6912C13.5899 45.7072 13.6035 45.72 13.6121 45.7282C13.6208 45.7366 13.6265 45.7424 13.6288 45.7448L10.7544 48.5265ZM13.535 48.7328C13.6246 48.6581 13.699 48.5854 13.7548 48.5277L10.8804 45.746C10.8863 45.7398 10.8967 45.7294 10.9111 45.7157C10.9253 45.7023 10.9465 45.683 10.9742 45.6599L13.535 48.7328ZM13.7488 48.5338C14.1492 48.1236 14.5059 47.5576 14.8244 46.8958L11.2201 45.1612C11.1158 45.3779 11.0279 45.5301 10.963 45.63C10.8951 45.7346 10.8662 45.7605 10.8863 45.7399L13.7488 48.5338ZM14.8241 46.8964C15.4596 45.5771 15.994 43.7832 16.4224 41.8314L12.5154 40.9739C12.1131 42.8068 11.6582 44.2516 11.2204 45.1606L14.8241 46.8964ZM16.4221 41.8327C17.2816 37.9296 17.7499 33.2809 17.7499 30.2703H13.7499C13.7499 32.9811 13.3153 37.3414 12.5157 40.9726L16.4221 41.8327ZM17.7499 30.2703C17.7499 28.4083 17.6001 26.2144 16.859 24.4712L13.1778 26.0361C13.5824 26.9879 13.7499 28.4854 13.7499 30.2703H17.7499ZM16.8591 24.4714C16.4834 23.5874 15.9481 22.8007 15.1865 22.2316L12.7924 25.436C12.8427 25.4736 12.9981 25.6132 13.1778 26.0359L16.8591 24.4714ZM15.1848 22.2304C14.4135 21.6554 13.444 21.3322 12.2546 21.3322V25.3322C12.4817 25.3322 12.6135 25.3616 12.6799 25.3825C12.7422 25.402 12.7735 25.422 12.794 25.4373L15.1848 22.2304ZM12.2546 21.3322C11.0647 21.3322 10.0965 21.6556 9.32545 22.227L11.7071 25.4407C11.7301 25.4236 11.7636 25.4027 11.8273 25.3828C11.895 25.3616 12.0275 25.3322 12.2546 25.3322V21.3322ZM9.3192 22.2316C8.5563 22.8016 8.02083 23.5924 7.64643 24.4702L11.3257 26.0395C11.5067 25.6153 11.6642 25.4727 11.7133 25.436L9.3192 22.2316ZM24.5013 9.08332C22.5551 9.08198 20.6332 9.51483 18.8755 10.3503L20.5927 13.963C21.813 13.3829 23.1474 13.0824 24.4985 13.0833L24.5013 9.08332ZM21.4498 11.1289C21.0918 10.5313 20.7001 9.95459 20.2765 9.4016L17.101 11.834C17.4322 12.2664 17.7385 12.7173 18.0184 13.1844L21.4498 11.1289ZM20.297 9.42887L20.0753 9.12903L16.8589 11.5069L17.0805 11.8068L20.297 9.42887ZM20.0812 9.137C19.9627 8.97507 19.8487 8.80988 19.7394 8.64162L16.3851 10.8207C16.5347 11.0511 16.6908 11.2773 16.853 11.499L20.0812 9.137ZM18.9828 11.5067C20.6865 10.6235 22.5779 10.1638 24.4969 10.1667L24.5029 6.16666C21.9411 6.16283 19.4161 6.77647 17.1417 7.95559L18.9828 11.5067ZM24.4999 10.1667C30.7887 10.1667 35.95 15.0064 36.4589 21.1647L40.4453 20.8353C39.7665 12.6203 32.8878 6.16665 24.4999 6.16665V10.1667ZM38.4521 23H42.8749V19H38.4521V23ZM42.8749 23C44.2784 23 45.6243 23.5575 46.6167 24.5499L49.4451 21.7215C47.7026 19.9789 45.3392 19 42.8749 19V23ZM46.6167 24.5499C47.6091 25.5423 48.1666 26.8882 48.1666 28.2917H52.1666C52.1666 25.8274 51.1876 23.464 49.4451 21.7215L46.6167 24.5499ZM48.1666 28.2917V40.5417H52.1666V28.2917H48.1666ZM48.1666 40.5417C48.1666 41.9451 47.6091 43.291 46.6167 44.2834L49.4451 47.1119C51.1876 45.3693 52.1666 43.006 52.1666 40.5417H48.1666ZM46.6167 44.2834C45.6243 45.2758 44.2784 45.8333 42.8749 45.8333V49.8333C45.3392 49.8333 47.7026 48.8544 49.4451 47.1119L46.6167 44.2834ZM42.8749 45.8333H30.6249V49.8333H42.8749V45.8333ZM30.6249 45.8333C29.2215 45.8333 27.8755 45.2758 26.8831 44.2834L24.0547 47.1119C25.7972 48.8544 28.1606 49.8333 30.6249 49.8333V45.8333ZM26.8831 44.2834C25.8908 43.291 25.3333 41.9451 25.3333 40.5417H21.3333C21.3333 43.006 22.3122 45.3693 24.0547 47.1119L26.8831 44.2834ZM25.3333 40.5417V36.1188H21.3333V40.5417H25.3333ZM23.4979 34.1256C22.7298 34.0622 21.9697 33.9249 21.2279 33.7156L20.1419 37.5654C21.1309 37.8444 22.1445 38.0274 23.1686 38.112L23.4979 34.1256ZM22.6739 35.8501C22.7816 34.8279 22.8651 33.8033 22.9243 32.7771L18.9309 32.5469C18.8754 33.5099 18.797 34.4715 18.6959 35.4308L22.6739 35.8501ZM20.2827 34.5552C21.2044 34.8691 22.1585 35.0783 23.1271 35.1787L23.5394 31.2C22.8697 31.1306 22.2099 30.9859 21.5725 30.7688L20.2827 34.5552ZM25.3333 33.1893V28.2917H21.3333V33.1893H25.3333ZM25.3333 28.2917C25.3333 26.8882 25.8908 25.5423 26.8831 24.5499L24.0547 21.7215C22.3122 23.464 21.3333 25.8274 21.3333 28.2917H25.3333ZM26.8831 24.5499C27.8755 23.5575 29.2215 23 30.6249 23V19C28.1606 19 25.7972 19.9789 24.0547 21.7215L26.8831 24.5499ZM30.6249 23H35.5226V19H30.6249V23ZM37.5117 20.7918C36.8229 14.211 31.2619 9.08332 24.4999 9.08332V13.0833C29.1923 13.0833 33.0556 16.6426 33.5335 21.2082L37.5117 20.7918ZM42.8749 21.9167H38.3914V25.9167H42.8749V21.9167ZM36.4072 23.666C36.0733 26.3099 34.8694 28.7675 32.985 30.6518L35.8135 33.4802C38.3255 30.9682 39.9305 27.6918 40.3757 24.1673L36.4072 23.666ZM32.985 30.6518C31.1007 32.5361 28.6431 33.74 25.9993 34.0739L26.5005 38.0424C30.0251 37.5972 33.3014 35.9922 35.8135 33.4802L32.985 30.6518ZM24.2499 36.0582V40.5417H28.2499V36.0582H24.2499ZM24.2499 40.5417C24.2499 42.2324 24.9216 43.8539 26.1171 45.0495L28.9455 42.221C28.5001 41.7756 28.2499 41.1715 28.2499 40.5417H24.2499ZM26.1171 45.0495C27.3127 46.245 28.9342 46.9167 30.6249 46.9167V42.9167C29.995 42.9167 29.3909 42.6664 28.9455 42.221L26.1171 45.0495ZM30.6249 46.9167H42.8749V42.9167H30.6249V46.9167ZM42.8749 46.9167C44.5657 46.9167 46.1872 46.245 47.3827 45.0495L44.5543 42.221C44.1089 42.6664 43.5048 42.9167 42.8749 42.9167V46.9167ZM47.3827 45.0495C48.5783 43.8539 49.2499 42.2324 49.2499 40.5417H45.2499C45.2499 41.1715 44.9997 41.7756 44.5543 42.221L47.3827 45.0495ZM49.2499 40.5417V28.2917H45.2499V40.5417H49.2499ZM49.2499 28.2917C49.2499 26.6009 48.5783 24.9794 47.3827 23.7838L44.5543 26.6123C44.9997 27.0577 45.2499 27.6618 45.2499 28.2917H49.2499ZM47.3827 23.7838C46.1872 22.5883 44.5657 21.9167 42.8749 21.9167V25.9167C43.5048 25.9167 44.1089 26.1669 44.5543 26.6123L47.3827 23.7838ZM26.567 35.087C29.288 34.6501 31.8018 33.3659 33.7505 31.4172L30.922 28.5888C29.5686 29.9422 27.8227 30.8342 25.9328 31.1376L26.567 35.087ZM33.7505 31.4172C35.6992 29.4685 36.9834 26.9547 37.4203 24.2337L33.4709 23.5996C33.1674 25.4894 32.2755 27.2353 30.922 28.5888L33.7505 31.4172ZM35.4456 21.9167H30.6249V25.9167H35.4456V21.9167ZM30.6249 21.9167C28.9342 21.9167 27.3127 22.5883 26.1171 23.7838L28.9455 26.6123C29.3909 26.1669 29.995 25.9167 30.6249 25.9167V21.9167ZM26.1171 23.7838C24.9216 24.9794 24.2499 26.6009 24.2499 28.2917H28.2499C28.2499 27.6618 28.5001 27.0577 28.9455 26.6123L26.1171 23.7838ZM24.2499 28.2917V33.1123H28.2499V28.2917H24.2499Z" fill="#F5FFFC" mask="url(#path-1-inside-1_721_1281)"/>
</svg>
