<svg width="75" height="75" viewBox="0 0 75 75" fill="none" xmlns="http://www.w3.org/2000/svg">
<path d="M34.375 6.25C20.5687 6.25 9.375 17.3281 9.375 30.9969C9.375 35.6625 10.6781 40.0281 12.9469 43.75M45.3125 34.375V40.625M54.6875 34.375V40.625M45.3125 9.375V15.625M54.6875 9.375V15.625M40.625 20.3125H34.375M40.625 29.6875H34.375M65.625 20.3125H59.375M65.625 29.6875H59.375M43.75 59.375L43.3437 61.3969C42.9062 63.6062 42.6844 64.7094 42.1875 65.5844C41.4219 66.933 40.1822 67.9488 38.7094 68.4344C37.7563 68.75 36.625 68.75 34.375 68.75C32.125 68.75 30.9937 68.75 30.0406 68.4375C28.5673 67.9511 27.3276 66.9342 26.5625 65.5844C26.0656 64.7094 25.8438 63.6062 25.4063 61.3969L25 59.375M53.125 15.625H46.875C43.9281 15.625 42.4563 15.625 41.5406 16.5406C40.625 17.4563 40.625 18.9281 40.625 21.875V28.125C40.625 31.0719 40.625 32.5437 41.5406 33.4594C42.4563 34.375 43.9281 34.375 46.875 34.375H53.125C56.0719 34.375 57.5438 34.375 58.4594 33.4594C59.375 32.5437 59.375 31.0719 59.375 28.125V21.875C59.375 18.9281 59.375 17.4563 58.4594 16.5406C57.5438 15.625 56.0719 15.625 53.125 15.625ZM19.9469 53.4312C19.6594 52.5687 19.5156 52.1344 19.5312 51.7844C19.5489 51.4225 19.6711 51.0735 19.8829 50.7795C20.0948 50.4856 20.3873 50.2593 20.725 50.1281C21.05 50 21.5062 50 22.4125 50H46.3375C47.2469 50 47.7 50 48.025 50.125C48.3632 50.2564 48.656 50.4832 48.8679 50.7777C49.0798 51.0722 49.2017 51.4219 49.2188 51.7844C49.2344 52.1344 49.0906 52.5656 48.8031 53.4312C48.2719 55.0281 48.0062 55.8281 47.5969 56.475C46.7406 57.8269 45.3984 58.7989 43.8469 59.1906C43.1031 59.375 42.2656 59.375 40.5875 59.375H28.1625C26.4844 59.375 25.6437 59.375 24.9031 59.1875C23.3521 58.7965 22.01 57.8257 21.1531 56.475C20.7438 55.8281 20.4781 55.0281 19.9469 53.4312Z" stroke="#333333" stroke-width="5" stroke-linecap="round" stroke-linejoin="round"/>
</svg>
