<svg width="75" height="75" viewBox="0 0 75 75" fill="none" xmlns="http://www.w3.org/2000/svg">
<path d="M18.75 8.59372C18.7504 8.15188 18.626 7.71891 18.3909 7.34476C18.1559 6.97061 17.8199 6.67051 17.4217 6.47908C17.0235 6.28765 16.5793 6.21268 16.1403 6.26282C15.7013 6.31296 15.2854 6.48617 14.9406 6.76247C10.8469 10.0406 8.61876 12.9125 7.44689 15.4125C6.60304 17.1845 6.19279 19.1319 6.25001 21.0937C6.25001 24.05 7.74064 26.6562 10.0125 28.2031C9.38796 28.7305 8.85383 29.3565 8.43126 30.0562C6.94376 32.4625 6.25001 36.1406 6.25001 41.4218C6.25001 46.7718 6.96876 53.1968 8.14064 58.3281C8.72189 60.8781 9.44376 63.2312 10.3031 64.9968C10.7313 65.875 11.2531 66.7312 11.8969 67.4031C12.5406 68.0625 13.5313 68.7656 14.8438 68.7656C16.1563 68.7656 17.1469 68.0625 17.7875 67.4031C18.4398 66.6881 18.9774 65.8764 19.3813 64.9968C20.2438 63.2281 20.9656 60.8781 21.5469 58.325C22.7669 52.7712 23.4006 47.1048 23.4375 41.4187C23.4375 36.1375 22.7438 32.4625 21.2563 30.0562C20.8337 29.3565 20.2996 28.7305 19.675 28.2031C20.8345 27.4149 21.7836 26.355 22.4394 25.1158C23.0952 23.8766 23.4379 22.4958 23.4375 21.0937C23.4375 18.1968 22.075 16.175 21.0375 14.6312L20.9469 14.4968C19.7281 12.6812 18.75 11.1875 18.75 8.59372ZM10.9375 21.0937C10.9375 20.1625 10.9375 19.0125 11.6938 17.4031C12.2188 16.275 13.1594 14.8437 14.8563 13.1187C15.4594 14.7343 16.3031 15.9937 17.0188 17.0562L17.0563 17.1125C18.1719 18.7718 18.75 19.7218 18.75 21.0937C18.75 22.1297 18.3385 23.1233 17.6059 23.8559C16.8733 24.5884 15.8798 25 14.8438 25C13.8078 25 12.8142 24.5884 12.0816 23.8559C11.3491 23.1233 10.9375 22.1297 10.9375 21.0937ZM10.9375 41.4218C10.9375 36.35 11.6438 33.775 12.4188 32.5187C12.6545 32.0974 13.0073 31.7533 13.4344 31.5281C13.8775 31.3326 14.36 31.2427 14.8438 31.2656C15.4688 31.2656 15.9156 31.3625 16.2531 31.5281C16.5656 31.6781 16.9156 31.95 17.2688 32.5187C18.0438 33.775 18.75 36.35 18.75 41.4218C18.75 46.425 18.0688 52.5 16.9781 57.2843C16.4281 59.6906 15.8031 61.6437 15.1688 62.9437C15.0679 63.1508 14.9595 63.354 14.8438 63.5531C14.728 63.354 14.6196 63.1508 14.5188 62.9437C13.8844 61.6437 13.2594 59.6875 12.7094 57.2843C11.57 52.0726 10.9761 46.7565 10.9375 41.4218ZM26.5125 43.9906C28.0165 44.6517 29.6153 45.0714 31.25 45.2343V38.2812C31.25 36.9475 31.5127 35.6268 32.0231 34.3946C32.5335 33.1624 33.2816 32.0428 34.2247 31.0997C35.1678 30.1566 36.2874 29.4085 37.5196 28.8981C38.7518 28.3877 40.0725 28.125 41.4063 28.125H48.3594C48.1027 25.5671 47.2189 23.112 45.7863 20.9775C44.3537 18.8429 42.4166 17.0948 40.1467 15.8881C37.8767 14.6815 35.3441 14.0535 32.7734 14.0599C30.2027 14.0664 27.6733 14.707 25.4094 15.925C24.923 14.899 24.3501 13.9162 23.6969 12.9875L23.5406 12.7562L22.9813 11.9062C25.9583 10.2596 29.3012 9.38703 32.7032 9.36867C36.1052 9.35031 39.4573 10.1867 42.4519 11.8011C45.4465 13.4156 47.9877 15.7563 49.8422 18.6084C51.6966 21.4606 52.805 24.7329 53.0656 28.125H58.5938C59.9275 28.125 61.2482 28.3877 62.4804 28.8981C63.7126 29.4085 64.8322 30.1566 65.7753 31.0997C66.7184 32.0428 67.4665 33.1624 67.9769 34.3946C68.4873 35.6268 68.75 36.9475 68.75 38.2812V55.4687C68.75 56.8025 68.4873 58.1231 67.9769 59.3553C67.4665 60.5876 66.7184 61.7072 65.7753 62.6503C64.8322 63.5934 63.7126 64.3415 62.4804 64.8519C61.2482 65.3623 59.9275 65.625 58.5938 65.625H41.4063C38.7127 65.625 36.1294 64.5549 34.2247 62.6503C32.32 60.7456 31.25 58.1623 31.25 55.4687V49.9406C29.5238 49.8089 27.8214 49.4571 26.1844 48.8937C26.3406 47.2375 26.4531 45.5875 26.5125 43.9906ZM58.5938 32.8125H52.8875C52.2231 37.0694 50.2233 41.0051 47.1767 44.0517C44.1302 47.0982 40.1944 49.098 35.9375 49.7625V55.4687C35.9375 58.4875 38.3875 60.9375 41.4063 60.9375H58.5938C60.0442 60.9375 61.4352 60.3613 62.4607 59.3357C63.4863 58.3101 64.0625 56.9191 64.0625 55.4687V38.2812C64.0625 36.8308 63.4863 35.4398 62.4607 34.4142C61.4352 33.3886 60.0442 32.8125 58.5938 32.8125ZM35.9375 45C38.9386 44.3838 41.693 42.9006 43.8593 40.7343C46.0257 38.5679 47.5088 35.8136 48.125 32.8125H41.4063C39.9559 32.8125 38.5649 33.3886 37.5393 34.4142C36.5137 35.4398 35.9375 36.8308 35.9375 38.2812V45Z" fill="#333333"/>
</svg>
