<svg width="75" height="75" viewBox="0 0 75 75" fill="none" xmlns="http://www.w3.org/2000/svg">
<path d="M7.03125 17.5781C7.03125 14.7809 8.14244 12.0983 10.1204 10.1204C12.0983 8.14244 14.7809 7.03125 17.5781 7.03125H57.4219C60.2191 7.03125 62.9017 8.14244 64.8796 10.1204C66.8576 12.0983 67.9688 14.7809 67.9688 17.5781V34.6547C66.6445 33.4094 65.035 32.508 63.2812 32.0297V17.5781C63.2812 16.0241 62.6639 14.5338 61.5651 13.4349C60.4662 12.3361 58.9759 11.7188 57.4219 11.7188H39.8438V32.0297C38.09 32.508 36.4805 33.4094 35.1562 34.6547V11.7188H17.5781C16.0241 11.7188 14.5338 12.3361 13.4349 13.4349C12.3361 14.5338 11.7188 16.0241 11.7188 17.5781V35.1562H34.6547C33.4094 36.4805 32.508 38.09 32.0297 39.8438H11.7188V57.4219C11.7188 58.9759 12.3361 60.4662 13.4349 61.5651C14.5338 62.6639 16.0241 63.2812 17.5781 63.2812H32.0297C32.5148 65.0625 33.4289 66.6633 34.6547 67.9688H17.5781C14.7809 67.9688 12.0983 66.8576 10.1204 64.8796C8.14244 62.9017 7.03125 60.2191 7.03125 57.4219V17.5781ZM35.1562 42.7734C35.1562 40.7532 35.9588 38.8158 37.3873 37.3873C38.8158 35.9588 40.7532 35.1562 42.7734 35.1562H60.3516C62.3718 35.1562 64.3092 35.9588 65.7377 37.3873C67.1662 38.8158 67.9688 40.7532 67.9688 42.7734V60.3516C67.9688 62.3718 67.1662 64.3092 65.7377 65.7377C64.3092 67.1662 62.3718 67.9688 60.3516 67.9688H42.7734C40.7532 67.9688 38.8158 67.1662 37.3873 65.7377C35.9588 64.3092 35.1562 62.3718 35.1562 60.3516V42.7734Z" fill="#333333"/>
</svg>
