<svg width="75" height="75" viewBox="0 0 75 75" fill="none" xmlns="http://www.w3.org/2000/svg">
<path d="M56.25 9.375H21.875C21.0463 9.37518 20.2515 9.70453 19.6656 10.2906L10.2906 19.6656L10.1125 19.8594C9.66753 20.3862 9.40933 21.0455 9.37812 21.7344L9.375 21.9V56.25C9.375 61.4188 13.5812 65.625 18.75 65.625H46.875C48.8129 65.6208 50.7023 65.0182 52.2847 63.8995C53.8671 62.7808 55.0654 61.2006 55.7156 59.375H57.8125C62.1937 59.375 65.625 55.2594 65.625 50V18.75C65.625 13.5812 61.4188 9.375 56.25 9.375ZM18.75 59.375C17.0281 59.375 15.625 57.975 15.625 56.25V25H21.875V59.375H18.75ZM50 56.25C50 57.975 48.5969 59.375 46.875 59.375H25V25H46.875C48.5969 25 50 26.4 50 28.125V56.25ZM59.375 50C59.375 51.9375 58.3625 53.125 57.8125 53.125H56.25V28.125C56.25 22.9563 52.0438 18.75 46.875 18.75H20.0437L23.1687 15.625H56.25C57.9719 15.625 59.375 17.025 59.375 18.75V50Z" fill="#333333"/>
</svg>
