<svg width="75" height="75" viewBox="0 0 75 75" fill="none" xmlns="http://www.w3.org/2000/svg">
<path d="M24.3235 21.6703C26.2367 16.7612 29.8054 12.675 34.4125 10.1186C39.0195 7.56211 44.3751 6.69616 49.5531 7.67046C54.731 8.64476 59.4056 11.3981 62.7684 15.4541C66.1312 19.5102 67.9707 24.614 67.9688 29.8828C67.9687 35.1034 66.1607 40.1628 62.8522 44.201C59.5437 48.2393 54.9388 51.0073 49.8204 52.0344" stroke="#333333" stroke-width="3" stroke-linecap="round" stroke-linejoin="round"/>
<path d="M33.9969 66.9219C31.8315 66.213 29.9042 64.9193 28.4279 63.1838C26.9516 61.4482 25.9839 59.3384 25.6315 57.0873C25.2791 54.8363 25.5559 52.5316 26.4312 50.428C27.3064 48.3243 28.7462 46.5036 30.5914 45.1669C32.4366 43.8302 34.6153 43.0296 36.887 42.8535C39.1587 42.6774 41.4348 43.1327 43.4639 44.1691C45.493 45.2055 47.1962 46.7826 48.3852 48.7262C49.5742 50.6699 50.2028 52.9043 50.2015 55.1828C50.1996 57.8071 49.3624 60.3626 47.8111 62.4793C46.2599 64.596 44.0752 66.164 41.5734 66.9563" stroke="#333333" stroke-width="3" stroke-linecap="round" stroke-linejoin="round"/>
<path d="M33.9969 61.7094C32.8316 61.0303 31.8653 60.0568 31.1951 58.8864C30.5248 57.716 30.1741 56.3899 30.1782 55.0412C30.1823 53.6925 30.541 52.3685 31.2183 51.2022C31.8957 50.0359 32.8678 49.0682 34.0373 48.3963C35.2067 47.7243 36.5323 47.3717 37.881 47.3739C39.2297 47.376 40.5542 47.7328 41.7215 48.4085C42.8888 49.0841 43.8578 50.0549 44.5315 51.2234C45.2051 52.3918 45.5596 53.7169 45.5594 55.0656C45.5591 56.4437 45.1892 57.7965 44.4881 58.9829C43.787 60.1693 42.7805 61.1459 41.5735 61.8109M37.8422 67.7141V57.3266M19.3907 53.8047C15.535 52.8532 12.1609 50.5233 9.9054 47.2546C7.64987 43.9859 6.6689 40.0046 7.14764 36.0622C7.62638 32.1198 9.53172 28.489 12.504 25.8552C15.4763 23.2213 19.3099 21.7666 23.2813 21.7656H23.2922C25.427 21.7648 27.5411 22.1845 29.5137 23.0007C31.4863 23.8169 33.2789 25.0136 34.789 26.5226C36.2991 28.0315 37.4972 29.8231 38.3149 31.7951C39.1326 33.7671 39.5539 35.8808 39.5547 38.0156V38.0203C39.5555 39.6678 39.3058 41.3058 38.8141 42.8781" stroke="#333333" stroke-width="3" stroke-linecap="round" stroke-linejoin="round"/>
<path d="M19.3906 47.0703C17.749 46.3733 16.3268 45.2446 15.2752 43.8041C14.2236 42.3636 13.5819 40.6651 13.4182 38.8891C13.2546 37.1131 13.5752 35.326 14.3458 33.7176C15.1165 32.1092 16.3086 30.7396 17.7952 29.7544C19.2819 28.7692 21.0078 28.2052 22.7894 28.1222C24.5709 28.0393 26.3417 28.4405 27.9135 29.2833C29.4853 30.1261 30.7994 31.379 31.7162 32.9089C32.633 34.4387 33.1182 36.1883 33.1203 37.9718C33.1202 39.9342 32.5355 41.8521 31.4407 43.4807C30.3458 45.1093 28.7906 46.3747 26.9735 47.1156M23.2485 54.3078V40.7968M32.4922 24.5937C33.7165 21.6101 35.9387 19.1441 38.7793 17.6168C41.6198 16.0896 44.9024 15.596 48.0665 16.2202C51.2306 16.8444 54.0798 18.5478 56.1275 21.0394C58.1752 23.5309 59.2943 26.6562 59.2938 29.8812C59.2929 32.9972 58.2467 36.0227 56.3226 38.4737C54.3986 40.9246 51.7079 42.6593 48.6813 43.4M45.3625 33.675V44.7453" stroke="#333333" stroke-width="3" stroke-linecap="round" stroke-linejoin="round"/>
<path d="M37.8421 57.0562C38.9605 57.0562 39.8671 56.1496 39.8671 55.0312C39.8671 53.9129 38.9605 53.0062 37.8421 53.0062C36.7238 53.0062 35.8171 53.9129 35.8171 55.0312C35.8171 56.1496 36.7238 57.0562 37.8421 57.0562Z" stroke="#333333" stroke-width="3" stroke-linecap="round" stroke-linejoin="round"/>
<path d="M23.2484 40.6344C24.7033 40.6344 25.8828 39.4549 25.8828 38C25.8828 36.545 24.7033 35.3656 23.2484 35.3656C21.7935 35.3656 20.614 36.545 20.614 38C20.614 39.4549 21.7935 40.6344 23.2484 40.6344Z" stroke="#333333" stroke-width="3" stroke-linecap="round" stroke-linejoin="round"/>
<path d="M45.3672 33.6859C47.503 33.6859 49.2344 31.9545 49.2344 29.8187C49.2344 27.6829 47.503 25.9515 45.3672 25.9515C43.2314 25.9515 41.5 27.6829 41.5 29.8187C41.5 31.9545 43.2314 33.6859 45.3672 33.6859Z" stroke="#333333" stroke-width="3" stroke-linecap="round" stroke-linejoin="round"/>
</svg>
