<svg width="75" height="75" viewBox="0 0 75 75" fill="none" xmlns="http://www.w3.org/2000/svg">
<path d="M40.9091 0L40.9125 10.4386C46.92 11.1982 52.5043 13.9344 56.7858 18.2165C61.0672 22.4986 63.8027 28.0833 64.5614 34.0909H75V40.9091L64.5614 40.9125C63.802 46.9195 61.0662 52.5034 56.7848 56.7848C52.5034 61.0662 46.9195 63.802 40.9125 64.5614L40.9091 75H34.0909V64.5614C28.0833 63.8027 22.4986 61.0672 18.2165 56.7858C13.9344 52.5043 11.1982 46.92 10.4386 40.9125L0 40.9091V34.0909H10.4386C11.1975 28.0828 13.9334 22.4977 18.2156 18.2156C22.4977 13.9334 28.0828 11.1975 34.0909 10.4386V0H40.9091ZM37.5 17.0455C32.0751 17.0455 26.8724 19.2005 23.0365 23.0365C19.2005 26.8724 17.0455 32.0751 17.0455 37.5C17.0455 42.9249 19.2005 48.1276 23.0365 51.9636C26.8724 55.7995 32.0751 57.9545 37.5 57.9545C42.9249 57.9545 48.1276 55.7995 51.9636 51.9636C55.7995 48.1276 57.9545 42.9249 57.9545 37.5C57.9545 32.0751 55.7995 26.8724 51.9636 23.0365C48.1276 19.2005 42.9249 17.0455 37.5 17.0455ZM37.5 30.6818C39.3083 30.6818 41.0425 31.4002 42.3212 32.6788C43.5998 33.9575 44.3182 35.6917 44.3182 37.5C44.3182 39.3083 43.5998 41.0425 42.3212 42.3212C41.0425 43.5998 39.3083 44.3182 37.5 44.3182C35.6917 44.3182 33.9575 43.5998 32.6788 42.3212C31.4002 41.0425 30.6818 39.3083 30.6818 37.5C30.6818 35.6917 31.4002 33.9575 32.6788 32.6788C33.9575 31.4002 35.6917 30.6818 37.5 30.6818Z" fill="#333333"/>
</svg>
